HIERARCHY
ROOT pelvis
{
	OFFSET 0.000000 0.000000 0.000000
	CHANNELS 6 Xposition Yposition Zposition Zrotation Xrotation Yrotation
	JOINT lfemur
	{
		OFFSET 11.446000 0.000000 0.000000
		CHANNELS 3 Zrotation Xrotation Yrotation
		JOINT ltibia
		{
			OFFSET 0.000000 -42.030400 0.000000
			CHANNELS 3 Zrotation Xrotation Yrotation
			JOINT lfoot
			{
				OFFSET 0.000000 -39.930200 0.000000
				CHANNELS 3 Zrotation Xrotation Yrotation
				JOINT ltoes
				{
					OFFSET 0.000000 0.000000 11.775800
					CHANNELS 3 Zrotation Xrotation Yrotation
					End Site
					{
					    OFFSET 0.000000 0.000000 5.000000
					}
				}
			}
		}
	}
	JOINT rfemur
	{
		OFFSET -11.446000 0.000000 0.000000
		CHANNELS 3 Zrotation Xrotation Yrotation
		JOINT rtibia
		{
			OFFSET 0.000000 -42.030400 0.000000
			CHANNELS 3 Zrotation Xrotation Yrotation
			JOINT rfoot
			{
				OFFSET 0.000000 -39.930200 0.000000
				CHANNELS 3 Zrotation Xrotation Yrotation
				JOINT rtoes
				{
					OFFSET 0.000000 0.000000 11.775800
					CHANNELS 3 Zrotation Xrotation Yrotation
					End Site
					{
					    OFFSET 0.000000 0.000000 5.000000
					}
				}
			}
		}
	}
	JOINT thorax
	{
		OFFSET 0.000000 11.255600 -5.000000
		CHANNELS 3 Zrotation Xrotation Yrotation
		JOINT head
		{
			OFFSET 0.000000 43.799300 0.000000
			CHANNELS 3 Zrotation Xrotation Yrotation
			End Site
			{
			    OFFSET 0.000000 5.000000 0.000000
			}
		}
		JOINT lclavicle
		{
			OFFSET 0.000000 39.863000 0.000000
			CHANNELS 3 Zrotation Xrotation Yrotation
			JOINT lhumerus
			{
				OFFSET 17.380600 4.958300 0.000000
				CHANNELS 3 Zrotation Xrotation Yrotation
				JOINT lradius
				{
					OFFSET 0.000000 -27.561300 0.000000
					CHANNELS 3 Zrotation Xrotation Yrotation
					JOINT lhand
					{
						OFFSET 0.000000 -26.933000 0.000000
						CHANNELS 3 Zrotation Xrotation Yrotation
						End Site
						{
						    OFFSET 0.000000 -5.000000 0.000000
						}
					}
				}
			}
		}
		JOINT rclavicle
		{
			OFFSET 0.000000 39.863000 0.000000
			CHANNELS 3 Zrotation Xrotation Yrotation
			JOINT rhumerus
			{
				OFFSET -17.380600 4.958300 0.000000
				CHANNELS 3 Zrotation Xrotation Yrotation
				JOINT rradius
				{
					OFFSET 0.000000 -27.561300 0.000000
					CHANNELS 3 Zrotation Xrotation Yrotation
					JOINT rhand
					{
						OFFSET 0.000000 -26.933000 0.000000
						CHANNELS 3 Zrotation Xrotation Yrotation
						End Site
						{
						    OFFSET 0.000000 -5.000000 0.000000
						}
					}
				}
			}
		}
	}
}
MOTION
Frames:	16
Frame Time:	0.0333333
49.3297 79.3658 10.389 14.5079 -7.21964 -90.776 14.2374 -40.0236 14.2447 0.151345 31.4025 -2.12722 -11.7068 6.88083 5.11251 1.41132e-015 -5 4.78906e-015 10.7051 -2.69741 6.49531 -0.145765 29.31 -0.206786 -7.26887 -22.2983 -9.96307 -2.02506e-015 -5 -4.9886e-015 -2.18648 7.42164 3.89143 -1.68905 -14.0747 -6.1097 -1.24141e-032 -8.94531e-016 -7.95139e-016 9.14333 0.968033 3.12369 9.78325 -15.5727 3.585 -0.302119 -2.18174 -15.7256 -1.24141e-032 -8.94531e-016 -7.95139e-016 -6.14743 -20.6416 46.6918 -48.1851 -47.2973 -30.7109 0.0268931 -0.660242 4.70301 
45.3719 79.0027 12.1143 14.8076 -4.42823 -93.0109 20.787 -46.978 23.9297 0.0408436 31.0609 -0.613611 -9.72657 0.422711 6.09633 -1.19271e-015 -5 -0 11.9738 2.25667 9.18669 -0.105387 24.293 -0.08071 -6.54192 -20.1066 -9.2867 -3.6522e-016 -5 -4.19042e-015 2.55132 8.17887 3.74569 -2.77747 -15.2185 -5.78192 -1.59028e-015 9.19379e-016 -1.98785e-016 9.93739 -0.879835 -0.471993 11.2628 -17.6598 4.3144 -0.162841 -1.60612 -11.5082 -1.59028e-015 9.19379e-016 -1.98785e-016 -8.58978 -19.9074 44.9842 -48.7195 -47.4962 -31.1539 0.0123969 -0.451088 3.21148 
41.0474 79.0795 14.1915 13.4218 -6.35066 -94.5792 15.1948 -49.0028 21.3042 0.00401014 33.1156 0.638872 -6.28262 -6.36457 3.88442 -7.95139e-016 -5 -0 7.51366 6.56604 9.24977 -0.1003 23.6089 -0.12979 -5.95979 -19.3221 -5.54341 4.70127e-015 -5 -7.98176e-016 0.282875 9.34765 3.30802 -1.80425 -14.0755 -4.01465 1.59028e-015 -1.40392e-015 4.72114e-016 12.3222 -2.50132 -0.535791 12.3992 -19.208 4.90274 -0.0937114 -1.21733 -8.69745 1.59028e-015 -1.40392e-015 4.72114e-016 -9.08647 -18.099 41.9588 -45.8432 -46.3714 -28.7775 0.00655361 -0.32886 2.34036 
36.574 78.5234 15.8672 11.3313 -5.2918 -96.3496 13.7988 -48.5274 21.0994 0.0647881 40.3316 0.561428 -4.24889 -2.55328 8.48321 8.44835e-016 -5 -0 6.42758 11.5399 7.50359 -0.10628 23.3859 -0.456256 -8.40095 -16.3161 -5.02533 -2.2115e-015 -5 1.99544e-015 1.23211 10.8287 3.73429 -0.59387 -12.0563 -3.93779 -1.59028e-015 2.26118e-015 -5.96354e-016 13.7876 -4.0022 -0.680074 13.6153 -20.8115 5.55803 -0.0459479 -0.847918 -6.04627 -1.59028e-015 2.26118e-015 -5.96354e-016 -10.5091 -15.6603 36.7525 -40.2325 -43.7707 -24.227 0.00983071 -0.394789 2.81326 
31.4145 79.2331 16.5823 9.91247 -5.10678 -99.8983 13.2981 -44.5961 20.4442 0.185283 44.2818 -0.451558 -4.80863 -6.43848 8.78516 1.43123e-015 -5 1.59635e-015 4.64743 12.8903 10.4819 -0.151232 28.804 -0.0933119 -7.54817 -10.7361 -1.81559 4.3037e-015 -5 -7.98176e-016 -1.06817 10.0019 5.57383 2.26453 -9.71488 -3.43509 7.95139e-016 4.57205e-015 3.97569e-016 17.35 -3.91316 -1.60127 14.801 -22.3215 6.22106 -0.00853283 -0.342834 -2.44227 7.95139e-016 4.57205e-015 3.97569e-016 -9.10164 -11.7165 31.4873 -34.0014 -40.1499 -19.342 0.0456105 -0.852199 6.07434 
26.0656 80.2692 18.7063 8.24756 -7.21537 -100.712 6.02318 -39.613 13.1038 0.210657 42.341 -1.22536 -5.0999 -7.52322 6.39547 5.39701e-015 -5 -7.98176e-016 0.831872 9.1863 10.1723 -0.345544 42.4138 0.902025 -10.0096 -0.842233 3.19804 2.12698e-015 -5 1.59635e-015 -4.22012 10.11 5.76621 4.2802 -9.70362 -3.91281 -7.95139e-016 -5.96354e-015 1.59028e-015 18.6116 -5.10053 0.14388 15.7472 -23.4894 6.7663 -0.00121667 -0.0242845 -0.174958 -7.95139e-016 -5.96354e-015 1.59028e-015 -9.24681 -8.18812 23.3372 -28.2993 -36.0267 -15.08 0.105495 -1.29486 9.25436 
20.9534 80.7972 20.9013 8.2331 -8.04034 -97.7417 0.608774 -36.5462 9.04713 0.216834 41.4558 -1.20266 -3.85036 -7.7856 6.58259 1.09305e-016 -5 2.39453e-015 -0.447972 0.76744 6.65961 -0.827054 57.8588 0.661403 -2.9448 12.8528 5.11393 8.84574e-016 -5 1.59635e-015 -3.99551 8.68017 2.98202 3.94973 -10.0176 -5.47518 1.37935e-031 4.96962e-015 -1.59028e-015 19.2256 -6.16423 -1.33705 16.2526 -24.0994 7.06311 -0.0118709 0.294175 2.09076 1.37935e-031 4.96962e-015 -1.59028e-015 -9.63342 -3.75936 13.3057 -23.8232 -32.1508 -11.9176 0.0953561 -1.22825 8.77756 
15.7611 81.3523 22.6568 6.53538 -10.5264 -97.6806 -2.57261 -30.6897 12.339 0.166281 40.2327 -1.0086 -2.70053 -12.715 9.78812 1.33184e-015 -5 1.59635e-015 -3.09541 -5.86186 4.91805 -2.05465 71.7891 1.86989 -1.77495 8.47252 1.89802 1.98785e-015 -5 -0 -7.38517 9.27637 2.67956 4.28696 -9.69543 -5.89997 7.95139e-016 -2.03754e-015 -0 21.1455 -8.14326 -2.53057 16.3981 -24.2733 7.14921 -0.0121312 0.298742 2.12343 7.95139e-016 -2.03754e-015 -0 -8.52365 -0.988036 4.40157 -19.8478 -28.1728 -9.27985 0.0771438 -1.10292 7.87643 
10.7901 81.7348 24.5152 5.75277 -12.7928 -95.2518 -7.86545 -25.3959 10.1166 0.100982 37.6236 -0.805996 -1.70088 -15.3336 11.7558 1.09332e-015 -5 -0 -6.05071 -13.4069 0.333452 -5.4633 81.6271 5.24276 -1.08489 1.53764 -1.19431 5.04423e-015 -5 -5.98632e-015 -9.53348 9.62672 -0.208648 3.54834 -9.45697 -5.29693 -1.51728e-032 1.09332e-015 7.95139e-016 22.631 -10.4583 -4.31021 16.2961 -24.1512 7.08878 -0.00178091 0.0870174 0.615701 -1.51728e-032 1.09332e-015 7.95139e-016 -8.58541 0.44916 -1.19446 -15.6188 -23.3337 -6.69174 0.049834 -0.883416 6.30049 
5.72187 81.8343 25.8182 5.76834 -11.7876 -93.9188 -8.1516 -20.9621 10.3527 0.09739 36.6871 -1.26614 -1.63117 -17.0814 14.9198 -0 -5 -0 -4.67928 -21.1543 -2.40466 -10.8688 85.4615 10.5427 -1.20135 -3.67154 -2.626 -2.08697e-016 -5 -2.39453e-015 -7.65677 9.00635 -1.703 2.04201 -9.52123 -6.08054 -7.95139e-016 2.78299e-015 -7.95139e-016 22.0454 -12.4081 -4.0446 16.1798 -24.0119 7.01995 -0.0115094 -0.405648 -2.89023 -7.95139e-016 2.78299e-015 -7.95139e-016 -9.30965 2.72784 -6.78029 -12.8327 -19.7863 -5.13384 0.152066 -1.55136 11.1111 
0.65139 81.4459 26.8342 5.28123 -12.3256 -94.552 -9.67272 -16.1847 11.8614 0.066494 35.1276 -1.45953 -1.61975 -18.5252 16.5535 -6.75832e-016 -5 -3.1927e-015 -3.74756 -29.7365 -0.699981 -16.2324 86.8741 15.8657 -1.53042 -8.98234 -0.75466 4.59692e-015 -5 -1.99544e-015 -8.36695 8.96848 -1.16751 2.07637 -9.54843 -5.93202 -7.95139e-016 -5.36719e-015 1.59028e-015 21.6773 -14.043 -3.31084 16.4607 -24.3479 7.18646 -0.0409342 -0.797793 -5.68899 -7.95139e-016 -5.36719e-015 1.59028e-015 -9.18851 5.41282 -10.508 -11.9928 -18.6597 -4.69007 0.362443 -2.38434 17.2333 
-4.55354 81.0686 27.7726 4.85012 -12.5359 -95.0395 -11.7275 -9.59176 10.3759 0.0578417 30.3633 -1.85869 -2.03737 -17.1389 17.0654 6.36183e-016 -5 -6.38541e-015 -2.27625 -37.2815 1.16574 -7.18749 83.4468 6.8694 -1.6431 -10.9337 -0.994425 1.12071e-015 -5 -5.38769e-015 -8.58557 9.29337 -1.68429 2.34683 -9.50156 -4.99754 -7.95139e-016 -9.93923e-016 7.95139e-016 21.216 -14.6542 -4.16374 17.937 -26.0652 8.07937 -0.0130297 -0.434438 -3.09643 -7.95139e-016 -9.93923e-016 7.95139e-016 -9.10591 7.09147 -9.96849 -11.6717 -18.2218 -4.52389 0.538695 -2.8916 21.0625 
-9.75711 80.295 28.5208 4.73987 -12.5107 -95.2889 -12.4532 -4.46884 12.9499 0.0461925 27.8527 -2.35494 -2.26439 -19.8408 18.6161 1.31201e-015 -5 -3.1927e-015 -0.728485 -43.303 3.01339 -2.88678 75.9154 2.63163 -2.05682 -9.92036 -4.78843 1.62506e-015 -5 3.99088e-016 -8.6824 9.6603 -1.7667 2.96221 -10.7265 -4.66824 1.59028e-015 3.08116e-015 -2.38542e-015 20.841 -15.2655 -7.43616 19.8115 -28.1327 9.25606 -0.00284575 0.160877 1.14082 1.59028e-015 3.08116e-015 -2.38542e-015 -9.34238 7.81089 -6.75893 -12.1211 -18.8328 -4.75714 0.330358 -2.27823 16.444 
-14.9906 80.1609 28.9896 4.568 -12.1836 -94.7012 -14.3066 2.95492 10.0819 0.00941089 19.7231 -1.47579 -1.07021 -19.3196 16.0435 1.58956e-016 -5 6.38541e-015 -0.190487 -46.71 6.05347 -1.23675 64.4805 1.17368 -1.85477 -6.35443 -5.53814 -2.00767e-015 -5 -4.78906e-015 -8.15503 10.6597 -3.16761 2.91715 -12.0224 -4.02847 -7.1726e-032 -5.1684e-015 -7.95139e-016 20.2941 -15.5922 -10.0055 21.9981 -30.3893 10.684 -0.0169713 0.399557 2.84092 -7.1726e-032 -5.1684e-015 -7.95139e-016 -9.05107 7.70785 -4.32991 -13.3034 -20.4048 -5.388 0.171441 -1.64685 11.8049 
-20.2466 79.9803 29.3491 4.97205 -12.0192 -93.086 -15.6183 11.1015 7.73344 1.38672e-005 9.21986 -0.769896 1.06223 -20.3603 14.0231 7.15661e-016 -5 -3.1927e-015 -1.19588 -48.2912 7.88842 -0.544842 50.628 0.591865 -0.997495 1.26687 -9.11725 -3.92595e-015 -5 -3.99088e-015 -8.11543 11.0113 -4.60516 2.97356 -14.0019 -4.97747 7.95139e-016 6.65929e-015 -7.95139e-016 19.4401 -16.4419 -10.757 22.7357 -31.1139 11.1781 -0.00778201 -0.32813 -2.33846 7.95139e-016 6.65929e-015 -7.95139e-016 -7.72918 7.47715 -4.37598 -14.5203 -21.9689 -6.06252 0.109623 -1.31638 9.41202 
-25.5801 79.5592 29.4735 5.35069 -11.1476 -90.9839 -15.3773 19.1033 5.0297 -1.65526e-006 -1.85506e-005 -0.119653 4.6537 -15.5427 15.0941 -7.94778e-017 -5 -3.1927e-015 -2.42523 -48.2005 7.52925 -0.251564 37.6039 0.350461 -0.0690224 6.61324 -11.0132 -4.97953e-015 -5 -2.39453e-015 -7.41547 10.8356 -6.59385 3.33133 -14.4654 -6.03495 -7.95139e-016 -5.96354e-016 7.95139e-016 19.6889 -16.0636 -15.5978 23.8171 -32.1441 11.9131 -0.00775228 -0.329948 -2.35086 -7.95139e-016 -5.96354e-016 7.95139e-016 -6.34248 7.2997 -4.82504 -15.3769 -23.0368 -6.55183 0.0775296 -1.10501 7.89081 
